name Walk6.mot
datacolumns 19
datarows 25
range 3.18000000 3.30000000
endheader

                time	   L_ground_force_vx	   L_ground_force_vy	   L_ground_force_vz	   L_ground_force_px	   L_ground_force_py	   L_ground_force_pz	   R_ground_force_vx	   R_ground_force_vy	   R_ground_force_vz	   R_ground_force_px	   R_ground_force_py	   R_ground_force_pz	   L_ground_torque_x	   L_ground_torque_y	   L_ground_torque_z	   R_ground_torque_x	   R_ground_torque_y	   R_ground_torque_z	
          3.18000000	          0.00000000	          0.00000000	          0.00000000	          0.00000000	          0.00000000	          0.00000000	         22.79949768	         81.48359343	          4.47725948	          0.43508647	          0.00000000	          0.08398102	          0.00000000	          0.00000000	          0.00000000	          0.00000000	         -5.12253396	          0.00000000	
          3.18500000	          0.00000000	          0.00000000	          0.00000000	          0.00000000	          0.00000000	         -0.00000000	         17.01654983	         59.57737101	          4.62940374	          0.39799769	          0.00000000	          0.07732970	          0.00000000	          0.00000000	          0.00000000	          0.00000000	         -3.93088408	          0.00000000	
          3.19000000	          0.00000000	          0.00000000	          0.00000000	         -0.00000000	          0.00000000	         -0.00000000	         12.00142361	         41.40866943	          4.43399975	          0.35307826	          0.00000000	          0.06910630	          0.00000000	          0.00000000	          0.00000000	          0.00000000	         -2.87836049	          0.00000000	
          3.19500000	          0.00000000	          0.00000000	          0.00000000	         -0.00000000	          0.00000000	         -0.00000000	          7.84157785	         26.73352959	          3.98896103	          0.30159135	          0.00000000	          0.05948948	          0.00000000	          0.00000000	          0.00000000	          0.00000000	         -1.98390880	          0.00000000	
          3.20000000	          0.00000000	          0.00000000	         -0.00000000	         -0.00000000	          0.00000000	         -0.00000000	          4.55281104	         15.26838211	          3.39532655	          0.24624748	          0.00000000	          0.04895307	          0.00000000	          0.00000000	          0.00000000	          0.00000000	         -1.25509450	          0.00000000	
          3.20500000	          0.00000000	          0.00000000	         -0.00000000	         -0.00000000	          0.00000000	         -0.00000000	          2.08358578	          6.71165562	          2.74649125	          0.19138199	          0.00000000	          0.03834724	          0.00000000	          0.00000000	          0.00000000	          0.00000000	         -0.68853899	          0.00000000	
          3.21000000	          0.00000000	          0.00000000	         -0.00000000	         -0.00000000	          0.00000000	         -0.00000000	          0.33533301	          0.69358188	          2.11319149	          0.14106181	          0.00000000	          0.02851313	          0.00000000	         -0.00000000	          0.00000000	          0.00000000	         -0.27076280	          0.00000000	
          3.21500000	          0.00000000	          0.00000000	         -0.00000000	         -0.00000000	          0.00000000	         -0.00000000	         -0.81230841	         -3.22054617	          1.53994072	          0.09763617	          0.00000000	          0.01995166	          0.00000000	         -0.00000000	          0.00000000	          0.00000000	          0.01856304	          0.00000000	
          3.22000000	          0.00000000	          0.00000000	         -0.00000000	         -0.00000000	          0.00000000	         -0.00000000	         -1.48402484	         -5.47589441	          1.05053542	          0.06206631	          0.00000000	          0.01288342	          0.00000000	         -0.00000000	          0.00000000	          0.00000000	          0.20263398	          0.00000000	
          3.22500000	          0.00000000	          0.00000000	         -0.00000000	         -0.00000000	          0.00000000	         -0.00000000	         -1.79741516	         -6.48912850	          0.65360464	          0.03434735	          0.00000000	          0.00733177	          0.00000000	         -0.00000000	          0.00000000	          0.00000000	          0.30464921	          0.00000000	
          3.23000000	          0.00000000	          0.00000000	         -0.00000000	         -0.00000000	          0.00000000	         -0.00000000	         -1.85623249	         -6.62568430	          0.34736839	          0.01385526	          0.00000000	          0.00319175	          0.00000000	         -0.00000000	          0.00000000	          0.00000000	          0.34597554	          0.00000000	
          3.23500000	         -0.00000000	          0.00000000	         -0.00000000	         -0.00000000	          0.00000000	         -0.00000000	         -1.74714536	         -6.18924337	          0.12351237	         -0.00038171	          0.00000000	          0.00028441	          0.00000000	         -0.00000000	          0.00000000	          0.00000000	          0.34511482	          0.00000000	
          3.24000000	         -0.00000000	         -0.00000000	         -0.00000000	         -0.00000000	          0.00000000	         -0.00000000	         -1.53901183	         -5.41986794	         -0.02981049	         -0.00948141	          0.00000000	         -0.00160251	          0.00000000	         -0.00000000	          0.00000000	          0.00000000	          0.31726846	          0.00000000	
          3.24500000	         -0.00000000	         -0.00000000	         -0.00000000	         -0.00000000	          0.00000000	         -0.00000000	         -1.28382260	         -4.49783636	         -0.12577582	         -0.01456700	          0.00000000	         -0.00268581	          0.00000000	         -0.00000000	          0.00000000	          0.00000000	          0.27431902	          0.00000000	
          3.25000000	         -0.00000000	         -0.00000000	         -0.00000000	         -0.00000000	          0.00000000	         -0.00000000	         -1.01863984	         -3.55083090	         -0.17736918	         -0.01667622	          0.00000000	         -0.00316810	          0.00000000	         -0.00000000	          0.00000000	          0.00000000	          0.22508106	          0.00000000	
          3.25500000	         -0.00000000	         -0.00000000	         -0.00000000	         -0.00000000	          0.00000000	          0.00000000	         -0.76802118	         -2.66270685	         -0.19642724	         -0.01670994	          0.00000000	         -0.00322682	          0.00000000	         -0.00000000	          0.00000000	          0.00000000	          0.17570453	          0.00000000	
          3.26000000	         -0.00000000	         -0.00000000	         -0.00000000	          0.00000000	          0.00000000	          0.00000000	         -0.54656310	         -1.88258219	         -0.19311379	         -0.01541001	          0.00000000	         -0.00300928	          0.00000000	         -0.00000000	          0.00000000	          0.00000000	          0.13014420	          0.00000000	
          3.26500000	         -0.00000000	         -0.00000000	         -0.00000000	          0.00000000	          0.00000000	          0.00000000	         -0.36131979	         -1.23341387	         -0.17571597	         -0.01335764	          0.00000000	         -0.00263177	          0.00000000	         -0.00000000	          0.00000000	          0.00000000	          0.09063442	          0.00000000	
          3.27000000	         -0.00000000	         -0.00000000	          0.00000000	          0.00000000	          0.00000000	          0.00000000	         -0.21395082	         -0.71956667	         -0.15066208	         -0.01098507	          0.00000000	         -0.00218154	          0.00000000	         -0.00000000	          0.00000000	          0.00000000	          0.05812947	          0.00000000	
          3.27500000	         -0.00000000	         -0.00000000	          0.00000000	          0.00000000	          0.00000000	          0.00000000	         -0.10252503	         -0.33313740	         -0.12267996	         -0.00859480	          0.00000000	         -0.00172029	          0.00000000	         -0.00000000	          0.00000000	          0.00000000	          0.03268734	          0.00000000	
          3.28000000	         -0.00000000	         -0.00000000	          0.00000000	          0.00000000	          0.00000000	          0.00000000	         -0.02296134	         -0.05898065	         -0.09503306	         -0.00638222	          0.00000000	         -0.00128844	          0.00000000	         -0.00000000	          0.00000000	          0.00000000	          0.01378662	          0.00000000	
          3.28500000	         -0.00000000	         -0.00000000	          0.00000000	          0.00000000	          0.00000000	          0.00000000	          0.02987728	          0.12149542	         -0.06978768	         -0.00445858	          0.00000000	         -0.00090960	          0.00000000	          0.00000000	          0.00000000	          0.00000000	          0.00057560	          0.00000000	
          3.29000000	         -0.00000000	         -0.00000000	          0.00000000	          0.00000000	          0.00000000	          0.00000000	          0.06139873	          0.22762240	         -0.04807894	         -0.00287237	          0.00000000	         -0.00059472	          0.00000000	          0.00000000	          0.00000000	          0.00000000	         -0.00794189	          0.00000000	
          3.29500000	         -0.00000000	         -0.00000000	          0.00000000	          0.00000000	          0.00000000	          0.00000000	          0.07675693	          0.27767741	         -0.03035508	         -0.00162799	          0.00000000	         -0.00034576	          0.00000000	          0.00000000	          0.00000000	          0.00000000	         -0.01277589	          0.00000000	
          3.30000000	         -0.00000000	         -0.00000000	          0.00000000	          0.00000000	          0.00000000	          0.00000000	          0.08053530	          0.28781578	         -0.01658840	         -0.00070124	          0.00000000	         -0.00015876	          0.00000000	          0.00000000	          0.00000000	          0.00000000	         -0.01486542	          0.00000000	
